<?xml version="1.0" encoding="UTF-8" standalone="no"?>
<svg
   width="126.6669"
   height="128.25"
   viewBox="0 0 126.6669 128.25"
   fill="none"
   version="1.1"
   id="svg2"
   sodipodi:docname="calendar.svg"
   xmlns:inkscape="http://www.inkscape.org/namespaces/inkscape"
   xmlns:sodipodi="http://sodipodi.sourceforge.net/DTD/sodipodi-0.dtd"
   xmlns="http://www.w3.org/2000/svg"
   xmlns:svg="http://www.w3.org/2000/svg">
  <defs
     id="defs2" />
  <sodipodi:namedview
     id="namedview2"
     pagecolor="#ffffff"
     bordercolor="#000000"
     borderopacity="0.25"
     inkscape:showpageshadow="2"
     inkscape:pageopacity="0.0"
     inkscape:pagecheckerboard="0"
     inkscape:deskcolor="#d1d1d1"
     showgrid="false" />
  <path
     d="m 36.4176,4.75 c 0,-2.62333 -2.1267,-4.75 -4.75,-4.75 -2.6233,0 -4.75,2.12667 -4.75,4.75 v 10.002 c -9.1157,0.7299 -15.1001,2.5213 -19.4966997,6.9179 -4.3966,4.3966 -6.1881,10.381 -6.91799996,19.4968 H 126.1649 c -0.729,-9.1158 -2.521,-15.1002 -6.917,-19.4968 -4.397,-4.3966 -10.381,-6.188 -19.497,-6.9179 V 4.75 c 0,-2.62333 -2.127,-4.75 -4.75,-4.75 -2.623,0 -4.75,2.12667 -4.75,4.75 v 9.5817 C 86.0374,14.25 81.3146,14.25 76.0009,14.25 H 50.6676 c -5.3138,0 -10.0366,0 -14.25,0.0817 z"
     fill="#8970e0"
     id="path1" />
  <path
     fill-rule="evenodd"
     clip-rule="evenodd"
     d="m 3.4484863e-7,64.9165 c 0,-5.3137 0,-10.0364 0.0816999951514,-14.25 H 126.5849 c 0.082,4.2136 0.082,8.9363 0.082,14.25 v 12.6667 c 0,23.8838 0,35.8268 -7.42,43.2468 -7.42,7.42 -19.363,7.42 -43.2469,7.42 H 50.6667 c -23.8846,0 -35.8267,0 -43.2467997,-7.42 C 3.4484863e-7,113.41 3.4484863e-7,101.467 3.4484863e-7,77.5832 Z M 94.9999,77.5832 c 3.498,0 6.333,-2.8355 6.333,-6.3334 0,-3.4979 -2.835,-6.3333 -6.333,-6.3333 -3.498,0 -6.333,2.8354 -6.333,6.3333 0,3.4979 2.835,6.3334 6.333,6.3334 z m 0,25.3338 c 3.498,0 6.333,-2.836 6.333,-6.3338 0,-3.4979 -2.835,-6.3334 -6.333,-6.3334 -3.498,0 -6.333,2.8355 -6.333,6.3334 0,3.4978 2.835,6.3338 6.333,6.3338 z M 69.6667,71.2498 c 0,3.4979 -2.8355,6.3334 -6.3334,6.3334 -3.4979,0 -6.3333,-2.8355 -6.3333,-6.3334 0,-3.4979 2.8354,-6.3333 6.3333,-6.3333 3.4979,0 6.3334,2.8354 6.3334,6.3333 z m 0,25.3334 c 0,3.4978 -2.8355,6.3338 -6.3334,6.3338 -3.4979,0 -6.3333,-2.836 -6.3333,-6.3338 0,-3.4979 2.8354,-6.3334 6.3333,-6.3334 3.4979,0 6.3334,2.8355 6.3334,6.3334 z m -38,-19 c 3.4977,0 6.3333,-2.8355 6.3333,-6.3334 0,-3.4979 -2.8356,-6.3333 -6.3333,-6.3333 -3.4978,0 -6.3334,2.8354 -6.3334,6.3333 0,3.4979 2.8356,6.3334 6.3334,6.3334 z m 0,25.3338 c 3.4977,0 6.3333,-2.836 6.3333,-6.3338 0,-3.4979 -2.8356,-6.3334 -6.3333,-6.3334 -3.4978,0 -6.3334,2.8355 -6.3334,6.3334 0,3.4978 2.8356,6.3338 6.3334,6.3338 z"
     fill="#8970e0"
     id="path2" />
</svg>
