<svg width="152" height="152" viewBox="0 0 152 152" fill="none" xmlns="http://www.w3.org/2000/svg">
<path d="M48.4967 4.75C48.4967 2.12667 46.37 0 43.7467 0C41.1234 0 38.9967 2.12667 38.9967 4.75V14.752C29.881 15.4819 23.8966 17.2733 19.5 21.6699C15.1034 26.0665 13.3119 32.0509 12.582 41.1667H138.244C137.515 32.0509 135.723 26.0665 131.327 21.6699C126.93 17.2733 120.946 15.4819 111.83 14.752V4.75C111.83 2.12667 109.703 0 107.08 0C104.457 0 102.33 2.12667 102.33 4.75V14.3317C98.1165 14.25 93.3937 14.25 88.08 14.25H62.7467C57.4329 14.25 52.7101 14.25 48.4967 14.3317V4.75Z" fill="#8970E0"/>
<path fill-rule="evenodd" clip-rule="evenodd" d="M12.0791 64.9165C12.0791 59.6028 12.0791 54.8801 12.1608 50.6665H138.664C138.746 54.8801 138.746 59.6028 138.746 64.9165V77.5832C138.746 101.467 138.746 113.41 131.326 120.83C123.906 128.25 111.963 128.25 88.0791 128.25H62.7458C38.8612 128.25 26.9191 128.25 19.499 120.83C12.0791 113.41 12.0791 101.467 12.0791 77.5832V64.9165ZM107.079 77.5832C110.577 77.5832 113.412 74.7477 113.412 71.2498C113.412 67.7519 110.577 64.9165 107.079 64.9165C103.581 64.9165 100.746 67.7519 100.746 71.2498C100.746 74.7477 103.581 77.5832 107.079 77.5832ZM107.079 102.917C110.577 102.917 113.412 100.081 113.412 96.5832C113.412 93.0853 110.577 90.2498 107.079 90.2498C103.581 90.2498 100.746 93.0853 100.746 96.5832C100.746 100.081 103.581 102.917 107.079 102.917ZM81.7458 71.2498C81.7458 74.7477 78.9103 77.5832 75.4124 77.5832C71.9145 77.5832 69.0791 74.7477 69.0791 71.2498C69.0791 67.7519 71.9145 64.9165 75.4124 64.9165C78.9103 64.9165 81.7458 67.7519 81.7458 71.2498ZM81.7458 96.5832C81.7458 100.081 78.9103 102.917 75.4124 102.917C71.9145 102.917 69.0791 100.081 69.0791 96.5832C69.0791 93.0853 71.9145 90.2498 75.4124 90.2498C78.9103 90.2498 81.7458 93.0853 81.7458 96.5832ZM43.7458 77.5832C47.2435 77.5832 50.0791 74.7477 50.0791 71.2498C50.0791 67.7519 47.2435 64.9165 43.7458 64.9165C40.248 64.9165 37.4124 67.7519 37.4124 71.2498C37.4124 74.7477 40.248 77.5832 43.7458 77.5832ZM43.7458 102.917C47.2435 102.917 50.0791 100.081 50.0791 96.5832C50.0791 93.0853 47.2435 90.2498 43.7458 90.2498C40.248 90.2498 37.4124 93.0853 37.4124 96.5832C37.4124 100.081 40.248 102.917 43.7458 102.917Z" fill="#8970E0"/>
</svg>
