<svg width="129" height="129" viewBox="0 0 129 129" fill="none" xmlns="http://www.w3.org/2000/svg">
<path d="M64.5 0C37.7849 0 16.125 21.6599 16.125 48.375C16.125 58.8945 19.5737 68.5474 25.3062 76.4527C25.409 76.6421 25.4251 76.8538 25.542 77.0352L57.792 125.41C59.2876 127.654 61.8071 129 64.5 129C67.1929 129 69.7124 127.654 71.208 125.41L103.458 77.0352C103.577 76.8538 103.591 76.6421 103.694 76.4527C109.426 68.5474 112.875 58.8945 112.875 48.375C112.875 21.6599 91.2151 0 64.5 0ZM64.5 64.5C55.595 64.5 48.375 57.28 48.375 48.375C48.375 39.47 55.595 32.25 64.5 32.25C73.405 32.25 80.625 39.47 80.625 48.375C80.625 57.28 73.405 64.5 64.5 64.5Z" fill="#8970E0"/>
</svg>
