<?xml version="1.0" encoding="UTF-8" standalone="no"?>
<svg
   width="96.75"
   height="129"
   viewBox="0 0 96.75 129"
   fill="none"
   version="1.1"
   id="svg1"
   sodipodi:docname="location.svg"
   xmlns:inkscape="http://www.inkscape.org/namespaces/inkscape"
   xmlns:sodipodi="http://sodipodi.sourceforge.net/DTD/sodipodi-0.dtd"
   xmlns="http://www.w3.org/2000/svg"
   xmlns:svg="http://www.w3.org/2000/svg">
  <defs
     id="defs1" />
  <sodipodi:namedview
     id="namedview1"
     pagecolor="#ffffff"
     bordercolor="#000000"
     borderopacity="0.25"
     inkscape:showpageshadow="2"
     inkscape:pageopacity="0.0"
     inkscape:pagecheckerboard="0"
     inkscape:deskcolor="#d1d1d1" />
  <path
     d="M 48.375,0 C 21.6599,0 0,21.6599 0,48.375 0,58.8945 3.4487,68.5474 9.1812,76.4527 9.284,76.6421 9.3001,76.8538 9.417,77.0352 l 32.25,48.3748 c 1.4956,2.244 4.0151,3.59 6.708,3.59 2.6929,0 5.2124,-1.346 6.708,-3.59 l 32.25,-48.3748 c 0.119,-0.1814 0.133,-0.3931 0.236,-0.5825 C 93.301,68.5474 96.75,58.8945 96.75,48.375 96.75,21.6599 75.0901,0 48.375,0 Z m 0,64.5 C 39.47,64.5 32.25,57.28 32.25,48.375 32.25,39.47 39.47,32.25 48.375,32.25 57.28,32.25 64.5,39.47 64.5,48.375 64.5,57.28 57.28,64.5 48.375,64.5 Z"
     fill="#8970e0"
     id="path1" />
</svg>
