<?xml version="1.0" encoding="UTF-8" standalone="no"?>
<svg
   width="209"
   height="172.69791"
   viewBox="0 0 209 172.69791"
   fill="none"
   version="1.1"
   id="svg1"
   sodipodi:docname="networking.svg"
   xmlns:inkscape="http://www.inkscape.org/namespaces/inkscape"
   xmlns:sodipodi="http://sodipodi.sourceforge.net/DTD/sodipodi-0.dtd"
   xmlns="http://www.w3.org/2000/svg"
   xmlns:svg="http://www.w3.org/2000/svg">
  <sodipodi:namedview
     id="namedview1"
     pagecolor="#ffffff"
     bordercolor="#000000"
     borderopacity="0.25"
     inkscape:showpageshadow="2"
     inkscape:pageopacity="0.0"
     inkscape:pagecheckerboard="0"
     inkscape:deskcolor="#d1d1d1" />
  <g
     clip-path="url(#clip0_49_159)"
     id="g1"
     transform="translate(0,-18.1511)">
    <path
       d="m 86.8417,38.9482 c 0,-11.4823 9.3076,-20.7971 20.7973,-20.7971 11.489,0 20.797,9.3076 20.797,20.7971 0,11.4895 -9.308,20.7971 -20.797,20.7971 -11.4897,0 -20.7973,-9.3149 -20.7973,-20.7971 z m 27.0823,74.2868 c 4.465,-4.77 10.721,-7.793 18.665,-9.025 1.805,-0.276 3.719,-0.442 5.698,-0.558 0.638,-0.022 1.24,-0.087 1.878,-0.087 h 12.373 c -9.082,-3.7769 -15.519,-12.7655 -15.519,-23.2184 0,-4.1681 1.036,-8.1188 2.856,-11.5692 -6.452,-2.3559 -12.403,-2.3197 -12.403,-2.3197 H 85.7689 c -4.6611,0.1088 -8.5755,0.6959 -11.8592,1.6673 2.0369,3.6244 3.204,7.7998 3.204,12.2216 0,10.4529 -6.4298,19.4343 -15.5271,23.2184 H 71.822 c 0.1232,-0.015 0.2392,-0.015 0.3697,-0.015 0.7249,0 1.515,0.029 2.3124,0.087 1.7035,0.124 3.5665,0.384 5.4947,0.776 10.4674,2.196 23.0952,9.083 24.4942,25.567 l 0.014,0.369 v 12.86 h 2.624 l 0.015,-12.86 c -0.015,-0.181 -0.377,-9.474 6.778,-17.114 z M 50.6915,101.361 c 11.4677,0 20.7971,-9.3292 20.7971,-20.8114 0,-11.4823 -9.3294,-20.7971 -20.7971,-20.7971 -11.4822,0 -20.7971,9.3148 -20.7971,20.7971 0,11.475 9.3221,20.8114 20.7971,20.8114 z m 19.8257,6.705 H 28.8216 C -1.02934,108.617 0.00724889,130.56 0.00724889,130.56 L 0,181.708 h 0.0289956 c 0,0.123 -0.02174671,0.254 -0.02174671,0.362 0,4.857 3.95064111,8.779 8.79290111,8.779 4.84955,0 8.76395,-3.922 8.76395,-8.779 0,-0.116 -0.0145,-0.239 -0.0363,-0.362 h 0.0363 v -47.35 h 5.4946 l -0.0435,50.438 52.6705,0.043 -0.0435,-50.713 h 5.6976 v 47.575 h 0.029 c 0,0.021 0,0.043 0,0.072 0,4.85 3.9217,8.778 8.7494,8.778 4.8495,0 8.7784,-3.928 8.7784,-8.778 0,-0.029 0,-0.051 0,-0.072 V 130.552 C 96.9757,107.726 70.5172,108.066 70.5172,108.066 Z m 90.2998,-6.712 c 11.489,0 20.804,-9.3149 20.804,-20.8044 0,-11.4895 -9.315,-20.8043 -20.804,-20.8043 -11.49,0 -20.805,9.3148 -20.805,20.8043 0.008,11.4895 9.315,20.8044 20.805,20.8044 z m 19.833,6.712 h -41.711 c -29.858,0.551 -28.799,22.494 -28.799,22.494 l -0.015,51.148 h 0.036 c 0,0.123 -0.021,0.254 -0.021,0.362 0,4.857 3.943,8.779 8.785,8.779 4.85,0 8.757,-3.922 8.757,-8.779 0,-0.116 -0.022,-0.239 -0.029,-0.362 h 0.029 v -47.35 h 5.509 l -0.065,50.438 52.67,0.043 -0.043,-50.713 h 5.697 v 47.575 h 0.015 c 0,0.021 0,0.043 0,0.072 0,4.85 3.929,8.778 8.771,8.778 4.835,0 8.764,-3.928 8.764,-8.778 0,-0.029 0,-0.051 0,-0.072 v -51.149 c -1.899,-22.826 -28.35,-22.486 -28.35,-22.486 z"
       fill="#8970e0"
       id="path1" />
  </g>
  <defs
     id="defs1">
    <clipPath
       id="clip0_49_159">
      <rect
         width="209"
         height="209"
         fill="#ffffff"
         id="rect1"
         x="0"
         y="0" />
    </clipPath>
  </defs>
</svg>
