<?xml version="1.0" encoding="UTF-8" standalone="no"?>
<svg
   width="156.08488"
   height="176.82269"
   viewBox="0 0 156.08488 176.82269"
   fill="none"
   version="1.1"
   id="svg1"
   sodipodi:docname="space-shuttle.svg"
   inkscape:export-filename="space-shuttle.svg"
   inkscape:export-xdpi="96"
   inkscape:export-ydpi="96"
   xmlns:inkscape="http://www.inkscape.org/namespaces/inkscape"
   xmlns:sodipodi="http://sodipodi.sourceforge.net/DTD/sodipodi-0.dtd"
   xmlns="http://www.w3.org/2000/svg"
   xmlns:svg="http://www.w3.org/2000/svg">
  <sodipodi:namedview
     id="namedview1"
     pagecolor="#ffffff"
     bordercolor="#000000"
     borderopacity="0.25"
     inkscape:showpageshadow="2"
     inkscape:pageopacity="0.0"
     inkscape:pagecheckerboard="0"
     inkscape:deskcolor="#d1d1d1" />
  <g
     clip-path="url(#clip0_49_154)"
     id="g1"
     transform="translate(-16.9551,-47.1193)">
    <path
       d="M 78.3591,63.6322 C 72.9909,75.0839 69.9124,90.399 69.9124,105.651 v 99.529 c -2.2838,1.726 -4.1732,3.688 -5.5745,5.826 v -71.908 c -10.5402,51.16 -47.3828,54.559 -47.3828,97.552 v 0.001 h 44.5956 v 5.574 H 16.9551 c 0,9.236 9.9831,16.724 22.2978,16.724 h 22.2978 c 0,8.081 3.4952,11.148 8.3617,11.148 h 13.9361 c 4.8717,0 8.3617,-3.072 8.3617,-11.148 h 5.5744 c 0,8.081 3.4954,11.148 8.3614,11.148 h 13.936 c 4.872,0 8.362,-3.072 8.362,-11.148 h 22.298 c 12.315,0 22.298,-7.488 22.298,-16.724 h -44.596 v -5.574 h 44.596 v -0.001 c 0,-42.993 -36.843,-46.392 -47.383,-97.552 v 71.908 c -1.401,-2.137 -3.291,-4.1 -5.575,-5.825 v -99.53 c 0,-15.252 -3.078,-30.5671 -8.446,-42.0188 -4.847,-10.3399 -11.067,-16.5129 -16.6386,-16.5129 -5.5717,0 -11.7917,6.173 -16.6383,16.5129 z m 30.5749,36.4448 c 0,0.739 -0.294,1.448 -0.817,1.971 -0.523,0.522 -1.231,0.816 -1.971,0.816 H 83.8485 c -0.7392,0 -1.4482,-0.294 -1.9709,-0.816 -0.5227,-0.523 -0.8163,-1.232 -0.8163,-1.971 0,-11.1176 27.8727,-11.1291 27.8727,0 z"
       fill="#8970e0"
       id="path1" />
  </g>
  <defs
     id="defs1">
    <clipPath
       id="clip0_49_154">
      <rect
         width="222.978"
         height="222.978"
         fill="#ffffff"
         transform="rotate(-90,112.45293,111.48907)"
         id="rect1"
         x="0"
         y="0" />
    </clipPath>
  </defs>
</svg>
