<?xml version="1.0" encoding="UTF-8" standalone="no"?>
<svg
   width="212.03299"
   height="183.50858"
   viewBox="0 0 212.03298 183.50858"
   fill="none"
   version="1.1"
   id="svg1"
   sodipodi:docname="space-shuttle.svg"
   inkscape:export-filename="space-shuttle.svg"
   inkscape:export-xdpi="96"
   inkscape:export-ydpi="96"
   xmlns:inkscape="http://www.inkscape.org/namespaces/inkscape"
   xmlns:sodipodi="http://sodipodi.sourceforge.net/DTD/sodipodi-0.dtd"
   xmlns="http://www.w3.org/2000/svg"
   xmlns:svg="http://www.w3.org/2000/svg">
  <sodipodi:namedview
     id="namedview1"
     pagecolor="#ffffff"
     bordercolor="#000000"
     borderopacity="0.25"
     inkscape:showpageshadow="2"
     inkscape:pageopacity="0.0"
     inkscape:pagecheckerboard="0"
     inkscape:deskcolor="#d1d1d1" />
  <g
     clip-path="url(#clip0_49_154)"
     id="g1"
     transform="translate(-11.191005,-31.545058)">
    <path
       d="m 198.46979,32.402376 c -12.45345,2.206937 -26.7465,8.510757 -39.21496,17.294896 L 77.89024,107.01939 c -2.72632,-0.87294 -5.41841,-1.28753 -7.97328,-1.20174 L 128.70149,64.403392 C 80.80792,85.251597 56.81036,57.090492 21.663734,81.851617 l -8.18e-4,5.8e-4 25.684114,36.456743 -4.55673,3.21025 -25.684109,-36.456743 c -7.550396,5.31933 -7.922205,17.793073 -0.829754,27.860293 l 12.842055,18.22837 c -6.606189,4.65412 -7.100446,9.27782 -4.297665,13.25617 l 8.02627,11.39271 c 2.805777,3.9826 7.327134,5.06639 13.929233,0.41515 l 3.21049,4.55705 c -6.60619,4.65412 -7.10033,9.27799 -4.29784,13.25593 l 8.02621,11.39263 c 2.80595,3.98284 7.32731,5.06663 13.92941,0.41539 l 12.84217,18.22854 c 7.09262,10.06746 18.96358,13.91594 26.51398,8.59661 l -25.68434,-36.45706 4.55672,-3.21026 25.68434,36.45707 8.2e-4,-5.8e-4 c 35.14662,-24.76111 16.70617,-56.83773 52.45894,-94.91891 l -58.78453,41.41424 c 0.94011,-2.37608 1.45634,-5.05171 1.55109,-7.91236 L 188.1492,90.710747 c 12.46845,-8.78414 23.21577,-20.120885 29.48588,-31.104625 5.66128,-9.9175 7.12538,-18.557569 3.91651,-23.112331 -3.20893,-4.554845 -11.83765,-6.084434 -23.0818,-4.091415 z m -12.18437,45.984656 c -0.60413,0.425625 -1.35306,0.593615 -2.08183,0.467285 -0.72794,-0.12692 -1.37605,-0.536385 -1.80224,-1.141335 l -12.84188,-18.22812 c -0.42573,-0.6043 -0.59373,-1.35323 -0.46803,-2.08117 0.12651,-0.72852 0.53702,-1.37687 1.14115,-1.80249 9.0886,-6.403 25.15082,16.37621 16.05283,22.78583 z"
       fill="#8970e0"
       id="path1" />
  </g>
  <defs
     id="defs1">
    <clipPath
       id="clip0_49_154">
      <rect
         width="222.978"
         height="222.978"
         fill="#ffffff"
         transform="rotate(-90,112.45293,111.48907)"
         id="rect1"
         x="0"
         y="0" />
    </clipPath>
  </defs>
</svg>
