<?xml version="1.0" encoding="UTF-8" standalone="no"?>
<svg
   width="204.68001"
   height="287.56781"
   viewBox="0 0 204.68001 287.56781"
   fill="none"
   version="1.1"
   id="svg1"
   sodipodi:docname="speaker.svg"
   xmlns:inkscape="http://www.inkscape.org/namespaces/inkscape"
   xmlns:sodipodi="http://sodipodi.sourceforge.net/DTD/sodipodi-0.dtd"
   xmlns="http://www.w3.org/2000/svg"
   xmlns:svg="http://www.w3.org/2000/svg">
  <defs
     id="defs1" />
  <sodipodi:namedview
     id="namedview1"
     pagecolor="#ffffff"
     bordercolor="#000000"
     borderopacity="0.25"
     inkscape:showpageshadow="2"
     inkscape:pageopacity="0.0"
     inkscape:pagecheckerboard="0"
     inkscape:deskcolor="#d1d1d1" />
  <path
     d="m 19.2504,87.396799 c 0,0 -1.1125,-22.8396 29.8619,-23.4328 h 16.8169 l 5.9011,9.7185 5.8925,-9.7185 h 14.6789 c 0,0 27.4543,-0.3054 29.4623,23.4328 V 117.5198 H 103.639 V 91.147799 l -5.9011,-0.017 V 117.5198 H 43.133 L 43.1938,91.383799 H 37.4752 V 117.5198 H 19.2504 Z m 52.5799,-30.412 c 11.9153,0 21.5796,-9.701 21.5796,-21.6616 0,-11.9605 -9.6643,-21.6615 -21.5796,-21.6615 -11.9152,0 -21.5795,9.701 -21.5795,21.6615 0,11.9606 9.6643,21.6616 21.5795,21.6616 z M 43.2112,287.5678 H 97.877 l 26.533,-139.88 H 16.617 Z M 204.68,29.251399 c 0,15.4937 -17.043,28.1173 -38.588,29.1467 -11.377,9.2299 -31.114,14.6213 -31.114,14.6213 9.265,-8.4447 10.212,-14.3858 9.613,-17.6921 -13.489,-4.8069 -22.736,-14.6563 -22.736,-26.0672 C 121.855,13.094599 140.393,-5.3100585e-7 163.267,-5.3100585e-7 186.142,-5.3100585e-7 204.688,13.094599 204.68,29.251399 Z m -16.87,7.267 c 0,-1.4394 -1.155,-2.591 -2.598,-2.591 h -43.907 c -1.434,0 -2.581,1.1516 -2.581,2.591 0,1.4395 1.147,2.591 2.581,2.591 h 43.907 c 1.443,0 2.598,-1.1515 2.598,-2.591 z m 0,-14.1328 c 0,-1.4307 -1.155,-2.5997 -2.598,-2.5997 h -43.907 c -1.434,0 -2.581,1.169 -2.581,2.5997 0,1.4308 1.147,2.5998 2.581,2.5998 h 43.907 c 1.443,0 2.598,-1.169 2.598,-2.5998 z M 0,142.2618 h 141.062 v -20.816 H 0 Z"
     fill="#8970e0"
     id="path1" />
</svg>
